<svg width="484" height="468" viewBox="0 0 484 468" fill="none" xmlns="http://www.w3.org/2000/svg">
<path d="M158.047 450.577C151.906 450.272 146.079 450.272 139.892 450.272V432.427H121.681V344.852H37.0239V326.891H18.4795V308.929H0V159.465H17.9701V141.504H36.5144V123.542L121.162 122.542V35.8244H139.707V17.8628H158.251V0L327.887 1V18.5309H346.431V36.4924H364.975L366.896 123.228H447.059V141.19H465.604V159.151H484L482.079 312.405H463.841V330.366H445.296V348.328H366.093V432.274H347.549V450.236H329.004V468H158.371C158.371 462.177 158.371 456.534 158.047 450.595M19.1372 180.477V290.106H37.9502V308.059H56.4853V326.012H141.114V413.73H159.446V430.821C165.596 431.09 171.627 431.35 177.99 431.628V449.087H309.673V431.251H328.208V413.299H346.743V329.37H425.928V311.418H444.463V293.465H462.553L464.474 177.911H446.031V159.959H427.496V142.006H347.351L345.43 55.2704H326.895V36.4207H308.36V18.9705L177.647 17.9705V35.8513H159.112V54.701H140.577V141.419L55.9388 142.419V160.372H37.663C37.663 165.207 37.5333 169.693 37.7093 174.161C37.8205 177.032 36.8664 178.252 33.7633 178.109C29.7618 177.92 25.7324 177.974 21.7308 178.136C20.8508 178.172 20.0079 179.087 19.1372 180.468V180.477Z" fill="white"/>
</svg>
