<?xml version="1.0" encoding="UTF-8"?>
<svg id="Layer_1" xmlns="http://www.w3.org/2000/svg" viewBox="0 0 213.57 408.71">
  <defs>
    <style>
      .cls-1 {
        fill: #fff;
      }
    </style>
  </defs>
  <path class="cls-1" d="M176.59,408.71c-47.11,0-93.73,0-140.75,0v-16.95h-18.01v-18.01H0v-213.81h213.57v213.73h-17.73v18.01h-17.05c0,4.84.11,9.3-.08,13.74-.05,1.12-1.06,2.2-2.12,3.3M53.79,278.21v-64.21h-16.72v105.43h16.72v-41.21Z"/>
  <path class="cls-1" d="M127.79,142.71H.08V35.91h17.52v-18.01h18.01V0h142.99v17.54h17.01v18.01h17.89v107.16h-85.72M37.53,53.77c-.23.24-.66.47-.66.71-.03,17.28-.03,34.57-.03,52.02h16.73v-52.79c-5.16,0-10.12,0-16.04.05Z"/>
</svg>