<svg width="70" height="68" viewBox="0 0 70 68" fill="none" xmlns="http://www.w3.org/2000/svg">
<path d="M34.5694 22.0803C27.989 22.0803 22.6545 27.4148 22.6545 33.9952C22.6545 40.5757 27.989 45.9102 34.5694 45.9102C41.1499 45.9102 46.4844 40.5757 46.4844 33.9952C46.4844 27.4148 41.1499 22.0803 34.5694 22.0803Z" fill="white"/>
<path d="M13.4781 20.5155C6.03388 20.5155 -0.000848848 26.5502 -0.000849499 33.9944C-0.00085015 41.4387 6.03388 47.4734 13.4781 47.4734C20.9223 47.4734 26.957 41.4387 26.957 33.9944C26.957 26.5502 20.9223 20.5155 13.4781 20.5155Z" fill="white"/>
<path d="M34.5679 0.000124707C27.1237 0.000124056 21.089 6.03485 21.089 13.4791C21.089 20.9233 27.1237 26.958 34.5679 26.958C42.0121 26.958 48.0469 20.9233 48.0469 13.4791C48.0469 6.03486 42.0121 0.000125357 34.5679 0.000124707Z" fill="white"/>
<path d="M55.6578 20.5155C48.2136 20.5155 42.1788 26.5502 42.1788 33.9944C42.1788 41.4387 48.2136 47.4734 55.6578 47.4734C63.102 47.4734 69.1367 41.4387 69.1367 33.9944C69.1367 26.5502 63.102 20.5155 55.6578 20.5155Z" fill="white"/>
<path d="M34.5679 41.0421C27.1237 41.0421 21.089 47.0768 21.089 54.5211C21.089 61.9653 27.1237 68 34.5679 68C42.0121 68 48.0469 61.9653 48.0469 54.5211C48.0469 47.0768 42.0121 41.0421 34.5679 41.0421Z" fill="white"/>
</svg>
